<?xml version="1.0" encoding="utf-8"?>
<!-- Generator: Adobe Illustrator 18.1.1, SVG Export Plug-In . SVG Version: 6.00 Build 0)  -->
<!DOCTYPE svg PUBLIC "-//W3C//DTD SVG 1.1//EN" "http://www.w3.org/Graphics/SVG/1.1/DTD/svg11.dtd">
<svg version="1.1" id="Layer_1" xmlns="http://www.w3.org/2000/svg" xmlns:xlink="http://www.w3.org/1999/xlink" x="0px" y="0px"
	 viewBox="0 0 240 120" enable-background="new 0 0 240 120" xml:space="preserve">
<g>
	<g>
		<linearGradient id="SVGID_1_" gradientUnits="userSpaceOnUse" x1="0" y1="57.8343" x2="240" y2="57.8343">
			<stop  offset="0" style="stop-color:#3C1C51"/>
			<stop  offset="0.4897" style="stop-color:#7F2E53"/>
			<stop  offset="1" style="stop-color:#D14354"/>
		</linearGradient>
		<path fill="url(#SVGID_1_)" d="M10.6,75.7c-5.8,0-10.4,4.5-10.4,10.1C0.2,91.5,4.9,96,10.6,96c5.8,0,10.4-4.5,10.4-10.1
			C21.1,80.3,16.4,75.7,10.6,75.7z M48.3,78.8c-4.1,0-7.4,3.2-7.4,7.2c0,4,3.3,7.2,7.4,7.2c4.1,0,7.4-3.2,7.4-7.2
			C55.7,82,52.3,78.8,48.3,78.8z M79.3,82.7c-1.8,0-3.3,1.5-3.3,3.3c0,1.8,1.5,3.3,3.3,3.3c1.8,0,3.3-1.5,3.3-3.3
			C82.6,84.2,81.2,82.7,79.3,82.7z M43.5,48.4v13.2c0,1.7,1.4,3.1,3.2,3.1c1.9,0,3.2-1.4,3.2-3.1V47.9c0-7.7-3.9-13.2-12.2-13.2
			c-4.8,0-8.7,1.9-11.3,5.9c-1.8-3.5-5.5-5.9-10.4-5.9c-4,0-7.7,2-9.6,5.5v-2.1c0-1.7-1-3.2-3.2-3.2c-2,0-3.2,1.3-3.2,3.2v23.4
			c0,1.7,1.4,3.1,3.2,3.1c1.9,0,3.2-1.4,3.2-3.1V48.4c0-4.4,2.7-8.1,7.9-8.1c5,0,7.5,3.5,7.5,8v13.2c0,1.7,1.3,3.1,3.2,3.1
			c2,0,3.2-1.4,3.2-3.1V48.4c0-4.4,3.1-8.1,8.1-8.1C41.2,40.3,43.5,43.8,43.5,48.4z M58.8,35c-1.8,0-3.2,1.4-3.2,3.1v23.5
			c0,1.7,1.3,3.1,3.2,3.1c1.9,0,3.2-1.4,3.2-3.1V38.1C62,36.4,60.6,35,58.8,35z M58.8,23.2c-2,0-3.7,1.7-3.7,3.6
			c0,2,1.7,3.6,3.7,3.6c2,0,3.7-1.6,3.7-3.6C62.5,24.9,60.8,23.2,58.8,23.2z M83.4,49.7l8.9-10.3c0.5-0.6,0.7-1.2,0.7-1.8
			c0-1.6-1.2-2.7-2.9-2.7c-0.9,0-1.6,0.3-2.1,0.9L80,45.7l-8.1-9.8c-0.5-0.6-1.2-0.9-2.1-0.9c-1.8,0-2.9,1.1-2.9,2.7
			c0,0.6,0.2,1.2,0.7,1.8l8.9,10.3l-9,10.4c-0.5,0.5-0.7,1.1-0.7,1.8c0,1.5,1.4,2.7,2.9,2.7c1,0,1.7-0.3,2.2-1l8.1-9.8l8.1,9.8
			c0.5,0.7,1.3,1,2.2,1c1.5,0,2.9-1.2,2.9-2.7c0-0.8-0.3-1.3-0.7-1.8L83.4,49.7z M114.8,34.7c-4.5,0-8.6,2.2-10.7,5.7v-2.2
			c0-1.7-1.2-3.2-3.1-3.2c-2,0-3.1,1.4-3.1,3.1v35.8c0,1.7,1.3,3.1,3.2,3.1c1.9,0,3.2-1.4,3.2-3.1V59.2c2.2,3.4,5.9,5.7,10.5,5.7
			c7.8,0,14.2-6,14.2-15.1C129,41,122.6,34.7,114.8,34.7z M113.5,59.8c-5.5,0-9.2-4.7-9.2-10c0-5.3,3.7-10,9.2-10
			c5.5,0,9.1,4,9.1,10C122.6,55.7,119,59.8,113.5,59.8z M147.1,34.7c-9.6,0-15.7,6.9-15.7,15.1c0,8.4,5.5,15.1,15,15.1
			c4.4,0,8-2,9.9-4.8v1.5c0,1.7,1.2,3.1,3.1,3.1c2,0,3.2-1.4,3.2-3.1V49.8C162.7,40.9,156.9,34.7,147.1,34.7z M147.1,59.6
			c-6,0-9.2-4.2-9.2-9.8c0-5.4,3.8-9.8,9.2-9.8c5.4,0,9.2,3.8,9.2,9.8C156.3,55,152.7,59.6,147.1,59.6z M181.9,34.7
			c-8.2,0-14.2,6.1-14.2,13.8v13.1c0,1.7,1.4,3.1,3.2,3.1c1.8,0,3.2-1.4,3.2-3.1V47.8c0-4.2,3.3-7.4,7.8-7.4c4.5,0,7.9,3.2,7.9,7.4
			v13.8c0,1.7,1.4,3.1,3.2,3.1c1.8,0,3.2-1.4,3.2-3.1V48.5C196.1,40.8,190.1,34.7,181.9,34.7z M215.2,34.7
			c-8.8,0-15.2,6.5-15.2,15.1c0,8.2,5.4,15.1,15.5,15.1c4.9,0,9.5-1.9,12.1-4.8c0.5-0.5,0.8-1.1,0.8-1.8c0-1.6-1.2-2.6-2.6-2.6
			c-0.8,0-1.6,0.5-2.1,1c-2.2,2-4.3,3.2-7.9,3.2c-5.6,0-8.8-3.4-9.2-8h20.3c1.8,0,2.4-1.1,2.4-2.1C229.3,41.4,223.8,34.7,215.2,34.7
			z M206.7,47c0.6-4.1,3.8-7.3,8.5-7.3c4.6,0,7.7,3.4,8.2,7.3H206.7z M236.8,19.7c-1.9,0-3.2,1.4-3.2,3.1v38.8
			c0,1.7,1.3,3.1,3.2,3.1c1.9,0,3.2-1.4,3.2-3.1V22.8C240,21.1,238.7,19.7,236.8,19.7z"/>
	</g>
</g>
<g>
	<g>
		
			<rect x="18.3" y="56.9" transform="matrix(0.7071 -0.7071 0.7071 0.7071 -13.1371 88.2842)" fill-rule="evenodd" clip-rule="evenodd" fill="#ED5E66" width="163.5" height="6.2"/>
	</g>
	<g>
		
			<rect x="18.3" y="56.9" transform="matrix(0.7071 -0.7071 0.7071 0.7071 -13.1371 88.2842)" fill="none" stroke="#FFFFFF" stroke-miterlimit="10" width="163.5" height="6.2"/>
	</g>
</g>
</svg>
