<?xml version="1.0" encoding="utf-8"?>
<!-- Generator: Adobe Illustrator 18.1.1, SVG Export Plug-In . SVG Version: 6.00 Build 0)  -->
<!DOCTYPE svg PUBLIC "-//W3C//DTD SVG 1.1//EN" "http://www.w3.org/Graphics/SVG/1.1/DTD/svg11.dtd">
<svg version="1.1" id="Layer_1" xmlns="http://www.w3.org/2000/svg" xmlns:xlink="http://www.w3.org/1999/xlink" x="0px" y="0px"
	 viewBox="0 0 82.6 20.3" enable-background="new 0 0 82.6 20.3" xml:space="preserve">
<g>
	<g>
		<path fill="#FFFFFF" d="M10.6,0C4.9,0,0.2,4.5,0.2,10.1c0,5.6,4.7,10.1,10.4,10.1c5.8,0,10.4-4.5,10.4-10.1
			C21.1,4.5,16.4,0,10.6,0z M48.3,3.1c-4.1,0-7.4,3.2-7.4,7.2c0,4,3.3,7.2,7.4,7.2c4.1,0,7.4-3.2,7.4-7.2
			C55.7,6.3,52.3,3.1,48.3,3.1z M79.3,7C77.5,7,76,8.4,76,10.2c0,1.8,1.5,3.3,3.3,3.3c1.8,0,3.3-1.5,3.3-3.3C82.6,8.4,81.2,7,79.3,7
			z"/>
	</g>
</g>
</svg>
