<?xml version="1.0" encoding="utf-8"?>
<!-- Generator: Adobe Illustrator 18.1.1, SVG Export Plug-In . SVG Version: 6.00 Build 0)  -->
<!DOCTYPE svg PUBLIC "-//W3C//DTD SVG 1.1//EN" "http://www.w3.org/Graphics/SVG/1.1/DTD/svg11.dtd">
<svg version="1.1" id="Layer_1" xmlns="http://www.w3.org/2000/svg" xmlns:xlink="http://www.w3.org/1999/xlink" x="0px" y="0px"
	 viewBox="0 0 240 76.3" enable-background="new 0 0 240 76.3" xml:space="preserve">
<g>
	<g>
		<path fill="#FFFFFF" d="M10.6,56.1c-5.8,0-10.4,4.5-10.4,10.1c0,5.6,4.7,10.1,10.4,10.1c5.8,0,10.4-4.5,10.4-10.1
			C21.1,60.6,16.4,56.1,10.6,56.1z M48.3,59.1c-4.1,0-7.4,3.2-7.4,7.2c0,4,3.3,7.2,7.4,7.2c4.1,0,7.4-3.2,7.4-7.2
			C55.7,62.4,52.3,59.1,48.3,59.1z M79.3,63.1c-1.8,0-3.3,1.5-3.3,3.3c0,1.8,1.5,3.3,3.3,3.3c1.8,0,3.3-1.5,3.3-3.3
			C82.6,64.5,81.2,63.1,79.3,63.1z M43.5,28.7v13.2c0,1.7,1.4,3.1,3.2,3.1c1.9,0,3.2-1.4,3.2-3.1V28.2c0-7.7-3.9-13.2-12.2-13.2
			c-4.8,0-8.7,1.9-11.3,5.9C24.5,17.4,20.8,15,16,15c-4,0-7.7,2-9.6,5.5v-2.1c0-1.7-1-3.2-3.2-3.2c-2,0-3.2,1.3-3.2,3.2v23.4
			C0,43.6,1.4,45,3.2,45c1.9,0,3.2-1.4,3.2-3.1V28.8c0-4.4,2.7-8.1,7.9-8.1c5,0,7.5,3.5,7.5,8v13.2c0,1.7,1.3,3.1,3.2,3.1
			c2,0,3.2-1.4,3.2-3.1V28.8c0-4.4,3.1-8.1,8.1-8.1C41.2,20.6,43.5,24.1,43.5,28.7z M58.8,15.3c-1.8,0-3.2,1.4-3.2,3.1v23.5
			c0,1.7,1.3,3.1,3.2,3.1c1.9,0,3.2-1.4,3.2-3.1V18.4C62,16.7,60.6,15.3,58.8,15.3z M58.8,3.6c-2,0-3.7,1.7-3.7,3.6
			c0,2,1.7,3.6,3.7,3.6c2,0,3.7-1.6,3.7-3.6C62.5,5.2,60.8,3.6,58.8,3.6z M83.4,30.1l8.9-10.3c0.5-0.6,0.7-1.2,0.7-1.8
			c0-1.6-1.2-2.7-2.9-2.7c-0.9,0-1.6,0.3-2.1,0.9L80,26l-8.1-9.8c-0.5-0.6-1.2-0.9-2.1-0.9c-1.8,0-2.9,1.1-2.9,2.7
			c0,0.6,0.2,1.2,0.7,1.8l8.9,10.3l-9,10.4c-0.5,0.5-0.7,1.1-0.7,1.8c0,1.5,1.4,2.7,2.9,2.7c1,0,1.7-0.3,2.2-1l8.1-9.8l8.1,9.8
			c0.5,0.7,1.3,1,2.2,1c1.5,0,2.9-1.2,2.9-2.7c0-0.8-0.3-1.3-0.7-1.8L83.4,30.1z M114.8,15c-4.5,0-8.6,2.2-10.7,5.7v-2.2
			c0-1.7-1.2-3.2-3.1-3.2c-2,0-3.1,1.4-3.1,3.1v35.8c0,1.7,1.3,3.1,3.2,3.1c1.9,0,3.2-1.4,3.2-3.1V39.6c2.2,3.4,5.9,5.7,10.5,5.7
			c7.8,0,14.2-6,14.2-15.1C129,21.4,122.6,15,114.8,15z M113.5,40.1c-5.5,0-9.2-4.7-9.2-10c0-5.3,3.7-10,9.2-10c5.5,0,9.1,4,9.1,10
			C122.6,36.1,119,40.1,113.5,40.1z M147.1,15c-9.6,0-15.7,6.9-15.7,15.1c0,8.4,5.5,15.1,15,15.1c4.4,0,8-2,9.9-4.8v1.5
			c0,1.7,1.2,3.1,3.1,3.1c2,0,3.2-1.4,3.2-3.1V30.1C162.7,21.2,156.9,15,147.1,15z M147.1,40c-6,0-9.2-4.2-9.2-9.8
			c0-5.4,3.8-9.8,9.2-9.8c5.4,0,9.2,3.8,9.2,9.8C156.3,35.3,152.7,40,147.1,40z M181.9,15c-8.2,0-14.2,6.1-14.2,13.8v13.1
			c0,1.7,1.4,3.1,3.2,3.1c1.8,0,3.2-1.4,3.2-3.1V28.1c0-4.2,3.3-7.4,7.8-7.4c4.5,0,7.9,3.2,7.9,7.4v13.8c0,1.7,1.4,3.1,3.2,3.1
			c1.8,0,3.2-1.4,3.2-3.1V28.8C196.1,21.1,190.1,15,181.9,15z M215.2,15c-8.8,0-15.2,6.5-15.2,15.1c0,8.2,5.4,15.1,15.5,15.1
			c4.9,0,9.5-1.9,12.1-4.8c0.5-0.5,0.8-1.1,0.8-1.8c0-1.6-1.2-2.6-2.6-2.6c-0.8,0-1.6,0.5-2.1,1c-2.2,2-4.3,3.2-7.9,3.2
			c-5.6,0-8.8-3.4-9.2-8h20.3c1.8,0,2.4-1.1,2.4-2.1C229.3,21.8,223.8,15,215.2,15z M206.7,27.3c0.6-4.1,3.8-7.3,8.5-7.3
			c4.6,0,7.7,3.4,8.2,7.3H206.7z M236.8,0c-1.9,0-3.2,1.4-3.2,3.1v38.8c0,1.7,1.3,3.1,3.2,3.1c1.9,0,3.2-1.4,3.2-3.1V3.1
			C240,1.4,238.7,0,236.8,0z"/>
	</g>
</g>
</svg>
